<svg xmlns="http://www.w3.org/2000/svg" id="a" viewBox="0 0 851 1081"><defs><style>.b{fill:#e1dfe0}.c{fill:#7c3d66}.d{fill:#280f1f}.e{fill:#11232b}.f{fill:#5eb1c7}</style></defs><path d="M0 0h851v1080H0z" class="f"/><path d="M850 825.23V1081H1V825.23c216.78-14.37 417.77-225.15 424.34-232.08.03-.03.05-.06.07-.08.06-.07.09-.11.09-.11s.03.04.09.11c.02.02.04.05.07.08 6.57 6.93 207.56 217.71 424.34 232.08" class="c"/><path d="M850 865.1V1081H1V865.1c216.89-16.83 417.97-264.05 424.34-271.95.03-.03.05-.06.07-.08.06-.07.09-.11.09-.11s.03.04.09.11c.02.02.04.05.07.08 6.37 7.9 207.45 255.12 424.34 271.95" class="f"/><path d="M537.18 1081c120.18-15.11 228.1-53.95 312.82-109.12v-78.3c-116.31 42.61-264.34 68.13-425.5 68.13S117.01 936.48 1 894.32v78.85c84.41 54.48 191.58 92.84 310.82 107.83z" class="d"/><path d="M760.58 877c-50.74 32.71-182.07 56-336.08 56s-285.34-23.29-336.08-56c69.62 18 194.11 30 336.08 30s266.46-12 336.08-30" class="b"/><path d="M425.5 632.83C411.92 726.33 385.08 811.21 346 872c-12.97 0 210.73 9.58 342.59-20.82 1.5-.35 5.75-.48 4.41-1.18-153-80-267.5-217.17-267.5-217.17" class="e"/><path d="M402 678s-42 155-96.32 193.48C234 873 153 864 153 864c95-28 192-110 249-186" class="b"/><path d="M425.54 550.8s0-.04.01-.06c0 .04 0 .08-.01.12zM850 0v13.43c-.77.73-1.55 1.47-2.32 2.25-.35.33-.69.68-1.04 1.03-.7.7-1.39 1.41-2.07 2.14-.36.37-.72.75-1.07 1.13-.62.66-1.24 1.34-1.85 2.02l-.19.22c-.35.39-.69.77-1.03 1.16-.35.4-.69.8-1.03 1.2-.35.4-.69.8-1.03 1.21-.35.41-.69.82-1.03 1.24-1.94 2.35-3.86 4.83-5.76 7.43-.26.34-.51.69-.76 1.04-.54.75-1.07 1.51-1.61 2.28q-.465.66-.93 1.35c-.4.58-.8 1.17-1.19 1.76-.6.89-1.19 1.8-1.78 2.72a206 206 0 0 0-3.5 5.68c-.29.48-.58.98-.87 1.47s-.58.99-.86 1.49c-.29.51-.58 1.01-.86 1.52a223 223 0 0 0-4.23 7.9c-.28.55-.56 1.1-.83 1.65-.28.55-.56 1.11-.83 1.67-.28.56-.55 1.13-.82 1.69-.55 1.14-1.09 2.29-1.63 3.46s-1.08 2.35-1.6 3.55c-3.46 7.79-6.74 16.24-9.82 25.41-.22.64-.44 1.29-.65 1.94-.96 2.92-1.9 5.9-2.81 8.96-26 87-103.11 52.75-141 183-32 110-65 68-135.64 119.23-8.4 6.1-16.05 12.16-23.02 18.17-.61.53-1.21 1.05-1.81 1.58-5.59 4.89-10.72 9.75-15.43 14.55-.53.53-1.04 1.06-1.56 1.6-6.52 6.74-12.22 13.38-17.2 19.87-.3.38-.59.76-.87 1.13-.32.43-.65.85-.96 1.28a200.507 200.507 0 0 0-7.44 10.66c-.44.68-.87 1.36-1.3 2.03-1.53 2.42-2.96 4.81-4.3 7.17-.21.36-.4.71-.6 1.06-.44.78-.86 1.55-1.27 2.31-.35.65-.69 1.29-1.03 1.93-.64 1.23-1.26 2.44-1.85 3.64-.23.46-.45.92-.67 1.38-.23.46-.44.92-.66 1.37-.21.46-.42.91-.63 1.37-1.05 2.27-2.01 4.5-2.9 6.69-.22.56-.45 1.12-.66 1.66-.22.55-.43 1.1-.64 1.64-.41 1.09-.81 2.17-1.19 3.24-.31.87-.61 1.74-.89 2.59-.42 1.24-.81 2.46-1.18 3.67q-.48 1.545-.9 3.06c-.13.44-.26.89-.37 1.33-.12.42-.23.83-.34 1.24a145.506 145.506 0 0 0-1.48 6.12s-.01.03-.01.04c-.28 1.26-.53 2.49-.76 3.69-.07.34-.13.69-.2 1.02-.07.41-.15.82-.22 1.22-.26 1.46-.48 2.87-.69 4.24v.02c-.07.42-.13.84-.18 1.25-.06.41-.11.81-.17 1.22v.02c-.05.37-.1.73-.14 1.09-.03.18-.05.36-.06.53-.02.14-.04.27-.05.4l-.03.17-.06.54v.03s-.01.08-.02.12v.02c-.02.18-.04.36-.07.54.02-.16.03-.32.04-.49 0-.04 0-.09.02-.15v-.03s.02-.09.02-.13v-.05c.04-.5.07-1.02.1-1.54.02-.43.04-.86.05-1.29v-.38c.03-1.27.03-2.59.01-3.95v-.02c-.01-.64-.02-1.29-.05-1.94-.01-.39-.03-.78-.05-1.18-.01-.37-.03-.75-.05-1.13v-.06c-.03-.55-.05-1.1-.08-1.66-.06-1.05-.13-2.11-.19-3.2-.03-.34-.05-.67-.07-1.02-.05-.72-.1-1.45-.14-2.19a1591 1591 0 0 1-.39-5.85c-.04-.61-.08-1.24-.11-1.87-.04-.63-.07-1.26-.11-1.9-.13-2.51-.24-5.1-.3-7.75v-.28l-.03-1.83c-.01-1.07-.02-2.14-.01-3.22v-.28c0-.76.01-1.53.03-2.3v-.02c.02-.64.03-1.28.06-1.92.02-.7.05-1.39.09-2.09.03-.61.06-1.22.1-1.83.04-.66.09-1.32.14-1.99s.11-1.33.17-2 .13-1.34.2-2.02c.13-1.16.28-2.34.44-3.52.03-.19.05-.37.08-.56.02-.2.05-.39.09-.59v-.02c.04-.32.09-.63.14-.94.01-.09.02-.16.04-.24.1-.66.21-1.32.33-1.99.12-.68.25-1.36.39-2.05.08-.44.17-.88.27-1.33.14-.65.28-1.3.43-1.95a86 86 0 0 1 .96-3.84c.1-.41.22-.82.33-1.23.49-1.74 1.03-3.49 1.63-5.25.14-.43.29-.87.45-1.3.15-.44.31-.87.47-1.31 0 0 0-.01.01-.02 0-.02.01-.03.01-.05.09-.25.18-.49.29-.74.1-.27.2-.54.3-.8 1.81-4.68 4.04-9.43 6.77-14.21.32-.55.64-1.11.97-1.66.69-1.17 1.41-2.35 2.17-3.52.67-1.05 1.37-2.09 2.1-3.14.41-.59.82-1.19 1.25-1.78 3.67-5.11 7.95-10.24 12.96-15.37.43-.44.86-.88 1.3-1.31.53-.53 1.06-1.06 1.6-1.58 2.34-2.28 4.83-4.55 7.47-6.82.5-.43 1-.86 1.51-1.29.15-.13.31-.26.47-.39.51-.44 1.04-.87 1.57-1.3.2-.17.41-.34.62-.5.17-.15.35-.29.53-.43 1.12-.91 2.28-1.82 3.46-2.72.07-.06.15-.12.23-.18.68-.52 1.37-1.05 2.08-1.57.74-.56 1.5-1.11 2.27-1.67 8.78-6.36 17.23-12.22 25.24-17.81 1.61-1.11 3.19-2.22 4.76-3.32 2.35-1.65 4.66-3.27 6.92-4.89q2.265-1.605 4.47-3.21 1.11-.795 2.19-1.59c1.45-1.07 2.88-2.13 4.28-3.18.71-.53 1.4-1.06 2.09-1.59 1.39-1.06 2.75-2.12 4.09-3.17 4.68-3.71 9.07-7.44 13.14-11.27 1.16-1.09 2.3-2.2 3.41-3.31 18.03-18.1 28.8-38.95 28.45-70.79V281c-.01-.5-.02-1-.04-1.51-.03-1.32-.09-2.67-.16-4.02a174.162 174.162 0 0 0-1.18-12.67c-.09-.68-.18-1.38-.28-2.08 0-.04-.01-.09-.02-.14q-.15-1.11-.33-2.25c-.22-1.51-.47-3.04-.74-4.6l-.21-1.2c-.04-.25-.09-.52-.14-.78-.09-.53-.19-1.06-.29-1.59-.07-.38-.14-.77-.22-1.16-.55-2.83-1.15-5.72-1.83-8.69-.3-1.31-.6-2.64-.93-3.98-.16-.67-.32-1.34-.49-2.02-.19-.76-.38-1.52-.58-2.29-.15-.6-.31-1.21-.47-1.82-.18-.69-.36-1.39-.55-2.09s-.38-1.4-.57-2.11q-.255-.915-.48-1.8-.21-.84-.42-1.65c-.07-.31-.15-.62-.22-.93-.1-.42-.2-.84-.29-1.26-.14-.58-.26-1.15-.38-1.72q-.21-.975-.39-1.92c-.15-.79-.29-1.56-.42-2.32q-.18-1.065-.33-2.1c-.01-.05-.02-.1-.02-.15-.06-.37-.11-.74-.15-1.1-.05-.36-.09-.72-.13-1.08-.05-.4-.09-.81-.13-1.21-.05-.44-.09-.88-.12-1.31-.02-.31-.05-.61-.07-.92-.01-.23-.03-.45-.04-.68 0-.14-.02-.27-.03-.41 0-.07-.01-.14-.01-.21-.01-.23-.03-.46-.03-.69-.01-.23-.02-.46-.02-.69-.01-.51-.02-1.02-.02-1.52-.01-16.67 7.26-25.72 16.55-34.94 2.71-2.69 5.6-5.4 8.53-8.3.42-.41.83-.83 1.25-1.25C607.05 144.26 620.97 125.78 623 84c.16-3.22.33-6.32.53-9.31v-.15a1411 1411 0 0 1 .33-4.66c.06-.73.11-1.46.17-2.17.04-.56.09-1.11.14-1.65.01-.17.02-.34.04-.51.06-.76.13-1.52.2-2.26.01-.15.02-.3.04-.45l.15-1.58c.3-3.21.63-6.29.99-9.23.07-.66.16-1.32.24-1.96.1-.85.21-1.69.32-2.52.1-.72.19-1.42.29-2.12.39-2.81.8-5.49 1.23-8.06.09-.57.18-1.13.28-1.68.19-1.1.38-2.19.58-3.25.18-1.01.37-2.01.56-2.98.31-1.59.63-3.13.95-4.64.21-.97.41-1.92.63-2.85.21-.93.42-1.85.63-2.75.1-.45.21-.89.32-1.34.22-.89.43-1.76.65-2.62v-.02c.22-.85.44-1.68.65-2.51.26-.98.52-1.94.77-2.88q.27-.99.54-1.95c.29-1.06.58-2.09.88-3.11.14-.49.28-.98.43-1.46.22-.74.43-1.48.65-2.21.12-.38.23-.75.34-1.12z" class="e"/><path d="M425.62 549.6v.05c0 .11-.01.22-.02.33 0 .14 0 .28-.03.41 0 0-.01 0 0 .02 0 .01 0 .03-.01.04 0 .1-.01.19-.01.28s-.01.05-.01.07v.06c0 .13-.02.26-.04.4-.01.13-.08-.02-.18-.44-.15-.63-.37-1.84-.6-3.58v-.06c-.28-2.05-.58-4.84-.82-8.26-.07-1.13-.15-2.34-.21-3.61.87 3.45 1.5 6.66 1.79 9.64.16 1.63.21 3.17.15 4.65ZM750.85 0C745.4 35.47 732.12 56.73 720 70c-21.64 23.7-39.25 21.5-58 49-19.98 29.3-5.6 39.99-27 71-9.78 14.16-23.85 27.11-52 53-2.43 2.24-4.61 4.22-6.58 6-10.99 9.94-15.32 13.75-19.42 22-11.66 23.52 1.94 36.25-4 57-9.81 34.28-54.29 25.31-91 70-8.51 10.36-14.52 21.06-19.02 31.56-5.65 13.14-8.95 25.96-11.9 37.42 0 .02-.01.03-.01.05-.01.01-.01.02-.01.02-2.05 7.94-3.58 15.55-4.7 22.73-.05.29-.1.58-.14.87-.06.34-.11.68-.16 1.02v.02c-.04.25-.08.49-.11.74a239 239 0 0 0-1.57 13.25c-.06.65-.11 1.28-.16 1.91v.03c-.9 11.04-.88 20.46-.54 27.69-.93-3.67-2.12-7.61-3.46-11.79-.05-.16-.1-.31-.15-.46 0-.01 0-.02-.01-.03-.19-.59-.38-1.19-.58-1.8-6.2-19.21-14.71-43.32-13.56-71.22.11-2.71.31-5.46.62-8.24 0-.11.02-.22.04-.33.52-4.75 1.35-9.61 2.54-14.56.03-.11.05-.22.08-.34 1.39-5.75 3.26-11.62 5.7-17.62q.525-1.29 1.08-2.58c2.61-6.08 5.81-12.29 9.69-18.61 1.35-2.24 2.8-4.48 4.33-6.73 19.28-28.35 19.48-51.1 14.84-74.05-.17-.85-.35-1.69-.53-2.54-6.07-28.01-18.56-56.65-11.68-96.47 2.2-12.73 6.38-26.59 13.37-41.94 16.64-36.52 17.9-57.01 11.27-83.41-5.15-20.52-15.06-44.61-26.2-82.59z" class="c"/><path d="M425.54 550.8s.01-.09.01-.14v.07s-.01.05-.01.07M425.56 550.45s.01-.03.01-.04c0 .09-.01.17-.02.25.01-.07.01-.14.01-.21M636.53 0c-.11.37-.22.74-.33 1.12-.22.73-.44 1.46-.65 2.21-.15.48-.29.97-.43 1.46-.3 1.02-.59 2.05-.88 3.11q-.27.96-.54 1.95c-.26.94-.52 1.9-.77 2.88-.22.82-.43 1.66-.65 2.51v.02c-.22.86-.44 1.73-.65 2.62-.11.45-.22.89-.32 1.34-.21.9-.43 1.82-.63 2.75-.22.93-.42 1.88-.63 2.85-.32 1.51-.64 3.05-.95 4.64-.19.97-.38 1.97-.56 2.98-.2 1.06-.39 2.15-.58 3.25-.1.55-.19 1.11-.28 1.68-.43 2.57-.84 5.25-1.23 8.06-.1.7-.19 1.4-.29 2.12-.11.83-.22 1.67-.32 2.52-.09.64-.17 1.3-.24 1.96-.36 2.94-.69 6.02-.99 9.23l-.15 1.58c-.02.15-.03.3-.04.45-.07.74-.14 1.5-.2 2.26-.02.17-.03.34-.04.51-.05.54-.1 1.09-.14 1.65-.06.71-.11 1.44-.17 2.17l-.12 1.68-.21 2.97v.16c-.2 2.99-.37 6.09-.53 9.31-2.03 41.78-15.95 60.26-29.37 73.84-.42.42-.83.84-1.25 1.25-.42.42-.84.83-1.26 1.24-1.66 1.63-3.3 3.2-4.91 4.75-.8.77-1.59 1.54-2.36 2.31-9.29 9.22-16.56 18.27-16.55 34.94 0 .5.01 1.01.02 1.52.01.46.02.92.05 1.38 0 .07.01.14.01.21l.03.41c.01.23.03.45.04.68.02.31.05.61.07.92.03.43.07.87.12 1.31.04.4.08.81.13 1.21.04.36.08.72.13 1.08.04.36.09.73.15 1.1 0 .05.01.1.02.15q.15 1.035.33 2.1c.13.76.27 1.53.42 2.32q.18.945.39 1.92c.12.57.24 1.14.38 1.72.09.42.19.84.29 1.26.01.05.02.09.04.14.06.26.12.52.18.79q.21.81.42 1.65.225.885.48 1.8c.19.71.38 1.41.57 2.11s.37 1.4.55 2.09c.16.61.32 1.22.47 1.82.2.77.39 1.53.58 2.29.17.68.33 1.35.49 2.02.33 1.34.63 2.67.93 3.98.68 2.97 1.28 5.86 1.83 8.69.08.39.15.78.22 1.16.1.53.2 1.06.29 1.59.05.26.1.53.14.78l.21 1.2c.27 1.56.52 3.09.74 4.6q.18 1.14.33 2.25c.01.05.02.1.02.14.1.7.19 1.4.28 2.08a174 174 0 0 1 1.18 12.67c.07 1.35.13 2.7.16 4.02.02.51.03 1.01.04 1.51v.87c.35 31.84-10.42 52.69-28.45 70.79a153 153 0 0 1-3.41 3.31c-4.07 3.83-8.46 7.56-13.14 11.27-1.34 1.05-2.7 2.11-4.09 3.17-.69.53-1.38 1.06-2.09 1.59-1.4 1.05-2.83 2.11-4.28 3.18q-1.08.795-2.19 1.59-2.205 1.605-4.47 3.21c-2.26 1.62-4.57 3.24-6.92 4.89-1.57 1.1-3.15 2.21-4.76 3.32-8.01 5.59-16.46 11.45-25.24 17.81-.77.56-1.53 1.11-2.27 1.67-.71.52-1.4 1.05-2.08 1.57-.08.06-.16.12-.23.18-1.18.9-2.34 1.81-3.46 2.72-.18.14-.36.28-.53.43-.21.16-.42.33-.62.5-.53.43-1.06.86-1.57 1.3-.16.13-.32.26-.47.39-.51.43-1.01.86-1.51 1.29-2.64 2.27-5.13 4.54-7.47 6.82-.54.52-1.07 1.05-1.6 1.58-.44.43-.87.87-1.3 1.31-5.01 5.13-9.29 10.26-12.96 15.37-.43.59-.84 1.19-1.25 1.78-.73 1.05-1.43 2.09-2.1 3.14-.76 1.17-1.48 2.35-2.17 3.52-.34.56-.66 1.11-.97 1.66-2.73 4.78-4.96 9.53-6.77 14.21-.1.26-.2.53-.3.8-.11.26-.21.52-.3.79-.01.01-.01.02-.01.02-.16.44-.32.87-.47 1.31-.16.43-.31.87-.45 1.3-.6 1.76-1.14 3.51-1.63 5.25-.11.41-.23.82-.33 1.23a86.286 86.286 0 0 0-.96 3.84c-.15.65-.29 1.3-.43 1.95-.1.45-.19.89-.27 1.33-.14.69-.27 1.37-.39 2.05-.03.15-.05.3-.07.44-.1.52-.18 1.04-.26 1.55-.02.08-.03.15-.04.23-.05.32-.1.63-.14.94v.03c-.04.2-.07.39-.09.58-.03.2-.05.38-.08.57-.16 1.18-.31 2.36-.44 3.52-.07.68-.14 1.35-.2 2.02s-.12 1.33-.17 1.99c-.05.68-.1 1.34-.14 2-.04.61-.07 1.22-.1 1.83-.04.7-.07 1.39-.09 2.09-.03.64-.04 1.28-.06 1.92v.02c-.02.77-.03 1.54-.03 2.3v.28c0 1.08 0 2.15.01 3.22l.03 1.83v.28c.06 2.65.17 5.24.3 7.75.04.64.07 1.27.11 1.9.03.63.07 1.26.11 1.87l.12 1.85c.09 1.36.18 2.69.27 4 .04.74.09 1.47.14 2.19.02.35.04.68.07 1.02.06 1.09.13 2.15.19 3.2.03.56.05 1.11.08 1.66v.06c.02.38.04.76.05 1.13.02.4.04.79.05 1.18.03.65.04 1.3.05 1.94v.02c.02 1.36.02 2.68-.01 3.95v.38c-.01.43-.03.86-.05 1.29-.03.52-.06 1.04-.1 1.54v.05s-.01.09-.02.13v.03c-.01.06-.01.11-.02.15 0 .06-.01.12-.02.17-.01-.01 0-.01 0-.02.02-.13.03-.27.03-.41.01-.11.02-.22.02-.33v-.05c.06-1.48.01-3.02-.15-4.64-.29-2.99-.92-6.2-1.79-9.65-.93-3.67-2.12-7.61-3.46-11.79-.05-.16-.1-.31-.15-.46 0-.01 0-.02-.01-.03-.19-.59-.38-1.19-.58-1.8-6.2-19.21-14.71-43.32-13.56-71.22.11-2.71.31-5.46.62-8.24 0-.11.02-.22.04-.33.52-4.75 1.35-9.61 2.54-14.56.03-.11.05-.22.08-.34 1.39-5.75 3.26-11.62 5.7-17.62q.525-1.29 1.08-2.58c2.61-6.08 5.81-12.29 9.69-18.61 1.35-2.24 2.8-4.48 4.33-6.73 19.28-28.35 19.48-51.1 14.84-74.05-.17-.85-.35-1.69-.53-2.54-6.07-28.01-18.56-56.65-11.68-96.47 2.2-12.73 6.38-26.59 13.37-41.94 16.64-36.52 17.9-57.01 11.27-83.41-5.16-20.52-15.07-44.61-26.21-82.59z" class="b"/><path d="M425.54 550.8s.01-.09.01-.14v.07s-.01.05-.01.07M425.56 550.45s.01-.03.01-.04c0 .09-.01.17-.02.25.01-.07.01-.14.01-.21M636.53 0c-.11.37-.22.74-.33 1.12-.22.73-.44 1.46-.65 2.21-.15.48-.29.97-.43 1.46-.3 1.02-.59 2.05-.88 3.11q-.27.96-.54 1.95c-.26.94-.52 1.9-.77 2.88-.22.82-.43 1.66-.65 2.51v.02c-.22.86-.44 1.73-.65 2.62-.11.45-.22.89-.32 1.34-.21.9-.43 1.82-.63 2.75-.22.93-.42 1.88-.63 2.85-.32 1.51-.64 3.05-.95 4.64-.19.97-.38 1.97-.56 2.98-.2 1.06-.39 2.15-.58 3.25-.1.55-.19 1.11-.28 1.68-.43 2.57-.84 5.25-1.23 8.06-.1.7-.19 1.4-.29 2.12-.11.83-.22 1.67-.32 2.52-.09.64-.17 1.3-.24 1.96-.36 2.94-.69 6.02-.99 9.23l-.15 1.58c-.02.15-.03.3-.04.45-.07.74-.14 1.5-.2 2.26-.02.17-.03.34-.04.51-.05.54-.1 1.09-.14 1.65-.06.71-.11 1.44-.17 2.17l-.12 1.68-.21 2.97v.16c-.2 2.99-.37 6.09-.53 9.31-2.03 41.78-15.95 60.26-29.37 73.84-.42.42-.83.84-1.25 1.25-.42.42-.84.83-1.26 1.24-1.66 1.63-3.3 3.2-4.91 4.75-.8.77-1.59 1.54-2.36 2.31-9.29 9.22-16.56 18.27-16.55 34.94 0 .5.01 1.01.02 1.52.01.46.02.92.05 1.38 0 .07.01.14.01.21l.03.41c.01.23.03.45.04.68.02.31.05.61.07.92.03.43.07.87.12 1.31.04.4.08.81.13 1.21.04.36.08.72.13 1.08.04.36.09.73.15 1.1 0 .05.01.1.02.15q.15 1.035.33 2.1c.13.76.27 1.53.42 2.32q.18.945.39 1.92c.12.57.24 1.14.38 1.72.09.42.19.84.29 1.26.01.05.02.09.04.14.06.26.12.52.18.79q.21.81.42 1.65.225.885.48 1.8c.19.71.38 1.41.57 2.11s.37 1.4.55 2.09c.16.61.32 1.22.47 1.82.2.77.39 1.53.58 2.29.17.68.33 1.35.49 2.02.33 1.34.63 2.67.93 3.98.68 2.97 1.28 5.86 1.83 8.69.08.39.15.78.22 1.16.1.53.2 1.06.29 1.59.05.26.1.53.14.78l.21 1.2c.27 1.56.52 3.09.74 4.6q.18 1.14.33 2.25c.01.05.02.1.02.14.1.7.19 1.4.28 2.08a174 174 0 0 1 1.18 12.67c.07 1.35.13 2.7.16 4.02.02.51.03 1.01.04 1.51v.87c.35 31.84-10.42 52.69-28.45 70.79a153 153 0 0 1-3.41 3.31c-4.07 3.83-8.46 7.56-13.14 11.27-1.34 1.05-2.7 2.11-4.09 3.17-.69.53-1.38 1.06-2.09 1.59-1.4 1.05-2.83 2.11-4.28 3.18q-1.08.795-2.19 1.59-2.205 1.605-4.47 3.21c-2.26 1.62-4.57 3.24-6.92 4.89-1.57 1.1-3.15 2.21-4.76 3.32-8.01 5.59-16.46 11.45-25.24 17.81-.77.56-1.53 1.11-2.27 1.67-.71.52-1.4 1.05-2.08 1.57-.08.06-.16.12-.23.18-1.18.9-2.34 1.81-3.46 2.72-.18.14-.36.28-.53.43-.21.16-.42.33-.62.5-.53.43-1.06.86-1.57 1.3-.16.13-.32.26-.47.39-.51.43-1.01.86-1.51 1.29-2.64 2.27-5.13 4.54-7.47 6.82-.54.52-1.07 1.05-1.6 1.58-.44.43-.87.87-1.3 1.31-5.01 5.13-9.29 10.26-12.96 15.37-.43.59-.84 1.19-1.25 1.78-.73 1.05-1.43 2.09-2.1 3.14-.76 1.17-1.48 2.35-2.17 3.52-.34.56-.66 1.11-.97 1.66-2.73 4.78-4.96 9.53-6.77 14.21-.1.26-.2.53-.3.8-.11.26-.21.52-.3.79-.01.01-.01.02-.01.02-.16.44-.32.87-.47 1.31-.16.43-.31.87-.45 1.3-.6 1.76-1.14 3.51-1.63 5.25-.11.41-.23.82-.33 1.23a86.286 86.286 0 0 0-.96 3.84c-.15.65-.29 1.3-.43 1.95-.1.45-.19.89-.27 1.33-.14.69-.27 1.37-.39 2.05-.03.15-.05.3-.07.44-.1.52-.18 1.04-.26 1.55-.02.08-.03.15-.04.23-.05.32-.1.63-.14.94v.03c-.04.2-.07.39-.09.58-.03.2-.05.38-.08.57-.16 1.18-.31 2.36-.44 3.52-.07.68-.14 1.35-.2 2.02s-.12 1.33-.17 1.99c-.05.68-.1 1.34-.14 2-.04.61-.07 1.22-.1 1.83-.04.7-.07 1.39-.09 2.09-.03.64-.04 1.28-.06 1.92v.02c-.02.77-.03 1.54-.03 2.3v.28c0 1.08 0 2.15.01 3.22l.03 1.83v.28c.06 2.65.17 5.24.3 7.75.04.64.07 1.27.11 1.9.03.63.07 1.26.11 1.87l.12 1.85c.09 1.36.18 2.69.27 4 .04.74.09 1.47.14 2.19.02.35.04.68.07 1.02.06 1.09.13 2.15.19 3.2.03.56.05 1.11.08 1.66v.06c.02.38.04.76.05 1.13.02.4.04.79.05 1.18.03.65.04 1.3.05 1.94v.02c.02 1.36.02 2.68-.01 3.95v.38c-.01.43-.03.86-.05 1.29-.03.52-.06 1.04-.1 1.54v.05s-.01.09-.02.13v.03c-.01.06-.01.11-.02.15 0 .06-.01.12-.02.17-.01-.01 0-.01 0-.02.02-.13.03-.27.03-.41.01-.11.02-.22.02-.33v-.05c.06-1.48.01-3.02-.15-4.64-.29-2.99-.92-6.2-1.79-9.65-.93-3.67-2.12-7.61-3.46-11.79-.05-.16-.1-.31-.15-.46 0-.01 0-.02-.01-.03-.19-.59-.38-1.19-.58-1.8-6.2-19.21-14.71-43.32-13.56-71.22.11-2.71.31-5.46.62-8.24 0-.11.02-.22.04-.33.52-4.75 1.35-9.61 2.54-14.56.03-.11.05-.22.08-.34 1.39-5.75 3.26-11.62 5.7-17.62q.525-1.29 1.08-2.58c2.61-6.08 5.81-12.29 9.69-18.61 1.35-2.24 2.8-4.48 4.33-6.73 19.28-28.35 19.48-51.1 14.84-74.05-.17-.85-.35-1.69-.53-2.54-6.07-28.01-18.56-56.65-11.68-96.47 2.2-12.73 6.38-26.59 13.37-41.94 16.64-36.52 17.9-57.01 11.27-83.41-5.16-20.52-15.07-44.61-26.21-82.59z" class="b"/><path d="M672.65 0c-10 27.81-29.54 52.58-49.11 74.68v.01c-3.51 3.97-7.03 7.85-10.49 11.65-37.46 41.11-125.58 67.21-109.26 136.35 7.99 33.84 15.68 67.59.4 100.64-14.5 31.37-45.48 50.87-64.65 78.23a217 217 0 0 0-3.77 5.55c-4.69 7.16-8.85 14.48-12.28 22-1.16 2.53-2.24 5.09-3.22 7.67-1.38 3.61-2.58 7.27-3.59 10.98-.15.56-.3 1.12-.44 1.68-.47 1.83-.89 3.68-1.26 5.54-.03.13-.05.26-.08.39-.71 3.67-1.24 7.4-1.54 11.19-.66 7.98-.37 16.22 1.02 24.77 1.26 7.74 3.24 18.65 5.19 29.04.17.89.34 1.78.5 2.66.01.01.01.02.01.03.05.24.09.47.14.7.02.15.05.29.08.43 1.78 9.49 3.47 18.14 4.42 22.99v.06c.41 2.12.68 3.51.76 3.9 0 .03 0 .06.01.08-.03-.06-.09-.2-.17-.4-1.97-4.73-19.02-45.54-28.77-62.75-5.57-9.84-9.98-19.37-13.03-28.83-4.55-14.07-6.08-27.97-3.9-42.43.13-.95.29-1.9.47-2.86 0-.06.02-.12.03-.18 1.38-7.49 3.76-15.15 7.22-23.07.05-.12.11-.25.16-.37.01-.02.02-.04.02-.06 3.54-8.16 5.92-15.79 7.22-23.01 2.09-11.63 1.4-22.23-1.68-32.35-3.25-10.66-9.15-20.8-17.25-31.11-3.87-4.93-8.25-9.89-13.08-14.96-11.69-12.27-25.43-25.95-36.31-40.52-4.67-6.24-8.81-12.64-12.05-19.17-4.33-8.74-7.04-17.7-7.2-26.78-.23-12.38 4.28-25 15.87-37.61 4.11-4.47 8.1-8.89 11.83-13.33 12.36-14.68 22.04-29.71 24.83-48.5.78-5.2 1.03-10.7.65-16.56-1.24-19.29-1.82-38.84-2.77-58.29-.46-9.39-1.01-18.77-1.77-28.08z" class="d"/><path d="M427.33 505.47c-.17-3.36-.38-6.88-.61-10.55.4 4.11.55 7.7.61 10.55M427.33 505.48c.61 12.01.81 21.95.88 29.09 0 0-.01.03-.01.04-.26.97-.48 1.9-.7 2.82-.01.01 0 .02 0 .02-.32 1.36-.6 2.67-.83 3.95-.36 2.06-.6 4.01-.69 5.87v.02c-.01.12-.01.26-.02.38-.03.87-.02 1.73.02 2.56.01.22.02.45.04.67-.03-.2-.04-.4-.06-.6-.05-.6-.09-1.2-.12-1.82v-.09c-.02-.55-.04-1.09-.05-1.64v-.08c-.03-1.27-.02-2.6.01-3.95v-.02c.12-5.62.66-11.92 1.07-18.77.3-4.94.53-10.15.5-15.59 0-.84-.01-1.8-.04-2.86M566.74 0c-1.47 11.62-4.43 20.34-6.74 26-6.92 16.94-16.78 27.81-36 49-5.24 5.78-9.71 10.37-13.65 14.2-15.73 15.32-22.91 18.45-36.35 35.8-13.32 17.21-26.76 34.56-30 58-4.4 31.81 14.2 44.26 19.61 68.23 1.07 4.73 1.63 9.91 1.39 15.77-.53 13.04-4.66 21.92-10.47 29.42-2.89 3.74-6.2 7.14-9.69 10.53C432.7 318.79 418.41 330.64 412 357c-3.91 16.07-2.34 27.03 1.08 43.36.57 2.69 1.18 5.53 1.82 8.56 1.66 7.76 3.54 16.78 5.36 27.86 1.31 7.92 2.59 16.9 3.74 27.21.73 6.46 1.4 13.44 2 21.01l.06.75c.1 1.36.21 2.7.3 4.03.12 1.69.24 3.35.34 4.98a119 119 0 0 0-.94-7.22c-.7-4.36-1.46-7.51-1.79-8.86-.11-.44-.38-1.48-.73-2.77-1.16-4.25-2.64-8.56-4.49-12.92v-.03c-1.12-2.64-2.37-5.31-3.78-7.98-2.35-4.48-5.12-9-8.39-13.54-6.61-9.19-15.24-18.46-26.46-27.67-2.99-2.46-6.16-4.91-9.53-7.35-8.37-6.07-16.44-11.67-24.12-17.02-57.16-39.83-92.56-65.58-65.88-162.98 10.83-39.54-3.96-49.77-20.54-66.1-10.13-9.95-20.92-22.19-26.94-44.79-2.32-8.68-3.93-18.9-4.52-31.11-2.13-43.9-8.25-66.36-13.66-84.42z" class="f"/><path d="M468 273c-1.57 9.48-6.56 17-13.47 23.42-3.07 2.86-6.52 5.5-10.22 7.99-12.25 8.27-27.2 14.96-40.02 22.77-4 2.44-7.79 4.98-11.23 7.73-3.35 2.66-6.36 5.52-8.9 8.63-4.31 5.28-7.26 11.31-8.16 18.46-1.45 11.51 3.42 17.77 10.91 27.57.19.25.39.5.59.76 6.19 8.12 14.06 18.72 21.62 36.55.29.69.59 1.4.88 2.12.56 1.37 1.1 2.74 1.63 4.12 1.88 4.88 3.56 9.78 5.04 14.64 2.84 9.25 5 18.4 6.63 27.2.24 1.25.46 2.49.67 3.72q.42 2.445.78 4.86c.29 1.87.55 3.72.78 5.54a278.307 278.307 0 0 1 1.39 12.89c0 .03.01.07 0 .1q.27 3.21.45 6.27c.71 11.67.57 21.69.13 29.09-.01.01 0 .02 0 .02l-.06.85c-.39 5.96-.98 10.11-1.46 11.93-.01.03-.02.05-.02.07-.08.3-.16.53-.23.69l-.01.02c-.08.17-.15.25-.22.25-.01 0-.02-.01-.01-.04-.01-.02-.01-.05-.01-.08 0-.12.03-.36.08-.69.01-.01.01-.03.01-.04-.01-.01 0-.01 0-.02.01-.05.01-.1.02-.15 0-.04 0-.09.02-.15v-.03s.02-.09.02-.13c.02-.14.05-.29.07-.45l.03-.17c.01-.13.03-.26.05-.4.02-.13.04-.28.06-.43q.06-.375.12-.81c.12-.82.25-1.79.37-2.87v-.02q.06-.51.12-1.05c.08-.78.16-1.56.22-2.33.54-6.26.53-12.14.2-17.47-.05-.79-.1-1.55-.17-2.3-.5-6.26-1.41-11.67-2.32-15.94-.04-.23-.08-.44-.13-.65v-.02c-.97-4.49-1.9-7.63-2.25-9.02-.36-1.43-.72-2.88-1.09-4.36-1.97-7.8-4.26-16.28-7.56-25.08-2.04-5.43-4.46-10.97-7.43-16.55A123 123 0 0 0 395 433c-5.4-7.04-10.43-12.02-15.38-16.19-6.78-5.71-13.41-9.9-20.62-15.81a143 143 0 0 1-12.02-11.08c-.17-.17-.34-.34-.51-.52-26.8-27.85-43.09-65.78-46.47-94.4-3.15-26.73 4.66-47.86 14.37-65.85 1.44-2.67 2.91-5.26 4.41-7.79 14.29-24.32 29.69-43.07 20.22-63.36-1.16-2.49-2.54-4.66-4.13-6.57-16.93-20.54-57.1-11.02-101.76-35.9A139.188 139.188 0 0 1 224 110c-7.34-4.84-14.34-10.43-20.91-16.58-23.08-21.53-41-49.89-50.48-77.06-1.94-5.53-3.52-11-4.72-16.36h315.18c2.07 16.28 2.62 34.88-.07 55-1.36 10.2-3.36 19.3-5.73 27.59-12.98 45.4-37.23 66.22-30.27 106.41 1.24 7.17 3.21 13.41 5.63 18.93 8.76 20.01 23.41 30.74 30.98 43.3 3.81 6.32 5.82 13.11 4.39 21.77" class="b"/><path d="M425 448c-.06 2.48-.19 3.66-1 15.99-.19 2.96-.42 6.56-.7 10.97l-.06.95-.06.87c-.32 5.25-.72 11.57-1.18 19.22-.77 12.76-1.3 21.82-1.78 27.51v.25c-.01.04-.01.08-.02.12-.39 4.82-.76 7.12-1.19 7.12-.53.01-.12-3.47.46-9.5 0-.09.02-.18.02-.27.03-.29.06-.57.08-.86.67-6.97 1.46-16.96 1.35-28.73-.08-8.45-.62-17.81-2.02-27.63-.04-.34-.09-.68-.14-1.02v-.03c-.65-4.43-1.48-8.95-2.52-13.52-1.22-5.4-2.74-10.86-4.6-16.32-.75-2.2-1.56-4.39-2.43-6.58-1.79-4.54-3.85-9.07-6.2-13.54-4.82-9.16-10.06-16.53-15.48-22.73-.2-.24-.41-.47-.61-.7-23.86-26.87-51.07-31.96-61.91-69.57-8.89-30.85 4.83-43.34 1.42-71.68-.31-2.63-.78-5.39-1.42-8.32a92 92 0 0 0-6.22-18.64c-3.19-6.97-7.14-13.24-11.61-18.99-13.22-17.06-30.97-29.56-47.12-42.05-.41-.31-.81-.62-1.21-.93-4.83-3.75-9.49-7.5-13.84-11.39-16.69-14.92-30.64-33.57-41.91-54.58C188.02 65.38 177.72 33.15 172.05 0h189.8c-1.91 9.82-3.31 19.17-4.27 28.08-3.21 29.64-1.63 54.37 2.12 74.85.97 5.31 2.08 10.32 3.3 15.07 6.01 23.47 18.87 57.52 20 110 1 46.72-8.52 51.33-7.19 75.8.18 3.32.56 7 1.19 11.2 1.59 10.6 4.1 20 7.16 28.54 3.1 8.65 6.75 16.43 10.58 23.72 6.19 11.8 12.85 22.3 18.34 33.1 1.01 1.98 1.98 3.97 2.9 5.98 3.28 7.19 5.94 14.63 7.5 22.77 1.14 5.88 1.7 12.12 1.52 18.89" class="e"/><path d="M425.47 544.95c0 1.62.04 3.17.15 4.65v.05c0 .08.01.15.01.23v.05s.01.05.01.09v.03c.03.32.05.63.09.94.01.22.04.44.06.65-.02-.21-.05-.42-.07-.63-.03-.28-.06-.54-.1-.82v-.02s0-.06-.01-.08v-.03s-.01-.05-.01-.08c-.4-3.41-.95-7.11-1.71-11.06-.87-4.58-2.04-9.51-3.6-14.73-.03-.1-.06-.21-.1-.31-.23-.79-.47-1.58-.73-2.38-5.76-18.02-16.29-39.34-35.94-62.26-12.87-15.02-29.66-30.73-51.59-46.63-70.64-51.23-103.64-9.23-135.64-119.23-37.89-130.25-115-96-141-183C40.9 62.23 20.93 32.21 1 13.54V0h213.64c5.41 18.05 11.52 40.51 13.65 84.38.59 12.14 2.18 22.31 4.48 30.96 5.83 22.01 16.19 34.22 26.07 44.05 16.94 16.85 32.48 26.72 21.45 66.99-26.81 97.86 9.06 123.39 66.69 163.54 7.44 5.18 15.24 10.61 23.31 16.46 3.47 2.52 6.73 5.04 9.8 7.57 11.24 9.26 19.86 18.59 26.45 27.82 3.26 4.56 6.02 9.1 8.35 13.6 1.51 2.9 2.84 5.78 4 8.64a99 99 0 0 1 4.29 12.77c.61 2.27 1.13 4.53 1.57 6.76.33 1.66.62 3.3.87 4.93v.03c.16 1.07.31 2.12.44 3.17v.02c.44 3.49.71 6.93.86 10.28 0 .03.01.07 0 .1.31 6.87.12 13.42-.22 19.56-.33 6-.79 11.63-1.05 16.76v.06c-.11 2.27-.18 4.43-.18 6.5" class="c"/><path d="M182.8 166.28c-16.76-9.66-43.65-30.48-57.97-49.04-10.59-13.25-16.69-28.94-18.84-45.59-2.93-23.2-3.46-48.62-10.54-71.65h61.61c-1.57 5.02-3.05 10.04-4.16 15.12-.1.41-.2.82-.29 1.24-5.72 24.82 1 52.13 7.81 76.45 4.39 15.57 8.41 30.77 15.1 45.4 1.59 3.52 3.29 6.94 5.04 10.27 7.64 14.39 15.22 24.78 2.24 17.8M568.98 16.4c.22 16.79-3.61 33.19-12.22 47.8-11.57 20.39-35.25 44.79-50.48 56.72-11.87 8.74-5.83-2.61-.29-17.94 1.26-3.54 2.46-7.17 3.54-10.88.29-.96.56-1.93.82-2.89 3.97-14.49 5.71-29.16 7.73-44.18C520 30.55 521.74 15.07 521.1 0h47.31c.26 5.54.49 11.02.57 16.4" class="b"/></svg>