<svg xmlns="http://www.w3.org/2000/svg" viewBox="0 0 50 50"><defs><style>.cls-1{fill:#ebebeb;fill-rule:evenodd}.cls-1,.cls-2{stroke-width:0}.cls-2{fill:#c1bbb7}</style></defs><path id="Calque_16" d="M0 0h50v50H0z" class="cls-2"/><g id="pdf_telecharger"><path id="Subtract" d="M35.411 19.088a.7.7 0 0 1 .185.444q.007 5.66.007 11.319a2.276 2.276 0 0 0-2.144 2.272v.645c-1.3.264-1.975 1.823-1.148 2.968l1.311 1.817H14.297V11.307h2.409q5.23-.002 10.46.007c.144 0 .321.075.425.175q3.92 3.788 7.82 7.599m-8.076-6.436v6.947h6.945l-3.474-3.475z" class="cls-1"/><path id="coin_sup_droit" d="M34.281 19.599h-6.945v-6.948l6.945 6.947Z" class="cls-2"/><path id="Union" d="M36.495 33.123a.76.76 0 0 0-1.518 0v2.124h-1.128a.38.38 0 0 0-.308.601l1.886 2.614c.151.21.464.21.615 0l1.886-2.614a.38.38 0 0 0-.308-.601h-1.128v-2.124Z" class="cls-1"/><g id="pdf"><path d="M21.902 35.498h-.497v1.016h-.482v-2.595h.979q.397 0 .604.217t.208.573c.001.356-.069.428-.208.573q-.207.217-.604.217Zm-.018-.445q.34 0 .341-.345c.001-.345-.114-.345-.341-.345h-.479v.69zM23.967 36.514h-.812v-2.595h.812q.237 0 .449.078c.212.078.269.129.384.23s.206.237.274.406.102.364.102.584-.034.415-.102.584q-.102.255-.274.406c-.172.151-.243.178-.384.23s-.291.078-.449.078Zm-.33-.445h.178q.17 0 .313-.039a.9.9 0 0 0 .274-.128.6.6 0 0 0 .208-.263q.076-.174.076-.422c0-.248-.025-.307-.076-.423q-.076-.174-.208-.263a.7.7 0 0 0-.274-.128 1.2 1.2 0 0 0-.313-.039h-.178v1.706ZM25.609 33.918h1.643v.445h-1.161v.594h.934v.445h-.934v1.112h-.482v-2.595Z" class="cls-2"/></g><g id="cv"><path d="m24.077 25.792-1.156.296q-.454-1.206-1.71-1.206-.85 0-1.408.603-.559.603-.558 1.749c.001 1.146.186 1.347.558 1.749q.558.603 1.408.603 1.256 0 1.71-1.206l1.156.297q-.247.999-.993 1.547-.747.549-1.873.549-1.374 0-2.323-.939-.949-.938-.949-2.6c0-1.662.316-1.973.949-2.599q.95-.939 2.323-.939 1.126 0 1.873.549.745.548.993 1.547M28.16 30.694h-1.305l-2.323-6.919h1.423l1.552 5.12 1.552-5.12h1.423z" class="cls-2"/></g></g></svg>